<svg width="44" height="48" viewBox="0 0 44 48" fill="none" xmlns="http://www.w3.org/2000/svg">
<path d="M9.64739 13.0687H1.78668V7.03435C1.78668 2.20687 7.02715 1 9.64739 1V13.0687Z" fill="white" stroke="white" stroke-width="2"/>
<path d="M11.3322 25.0305C11.5311 26.0011 11.4292 27.0078 11.0383 27.924C10.6472 28.8406 9.98247 29.629 9.12424 30.1857C8.26572 30.7426 7.253 31.0412 6.21506 31.0412H1.00021L1.00021 26.007C1.00025 25.0181 1.30207 24.049 1.87131 23.2219C2.44089 22.3943 3.25375 21.7442 4.21017 21.3596C5.16676 20.975 6.22116 20.874 7.23849 21.0705C8.25578 21.267 9.1867 21.7518 9.91428 22.4582C10.6413 23.1642 11.1334 24.0598 11.3322 25.0305Z" fill="white" stroke="white" stroke-width="2"/>
<path d="M42.3698 40.7557V1.17748C36.0813 1.17748 34.631 5.67366 34.6919 7.92176V36.6737L21.1642 22.4752L19.519 24.0725L18.4221 34.5439L21.1642 33.124L34.6919 46.9675C38.0556 47.1095 42.3698 44.3053 42.3698 40.7557Z" fill="white" stroke="white" stroke-width="2"/>
</svg>
